<svg id="visual" viewBox="0 0 900 600" width="900" height="600" xmlns="http://www.w3.org/2000/svg" xmlns:xlink="http://www.w3.org/1999/xlink" version="1.1"><path d="M0 145L13.7 138C27.3 131 54.7 117 82 120C109.3 123 136.7 143 163.8 149C191 155 218 147 245.2 138C272.3 129 299.7 119 327 138C354.3 157 381.7 205 409 215C436.3 225 463.7 197 491 181C518.3 165 545.7 161 573 184C600.3 207 627.7 257 654.8 267C682 277 709 247 736.2 232C763.3 217 790.7 217 818 225C845.3 233 872.7 249 886.3 257L900 265L900 0L886.3 0C872.7 0 845.3 0 818 0C790.7 0 763.3 0 736.2 0C709 0 682 0 654.8 0C627.7 0 600.3 0 573 0C545.7 0 518.3 0 491 0C463.7 0 436.3 0 409 0C381.7 0 354.3 0 327 0C299.7 0 272.3 0 245.2 0C218 0 191 0 163.8 0C136.7 0 109.3 0 82 0C54.7 0 27.3 0 13.7 0L0 0Z" fill="#6198ff"></path><path d="M0 271L13.7 268C27.3 265 54.7 259 82 260C109.3 261 136.7 269 163.8 259C191 249 218 221 245.2 213C272.3 205 299.7 217 327 235C354.3 253 381.7 277 409 278C436.3 279 463.7 257 491 243C518.3 229 545.7 223 573 246C600.3 269 627.7 321 654.8 335C682 349 709 325 736.2 311C763.3 297 790.7 293 818 304C845.3 315 872.7 341 886.3 354L900 367L900 263L886.3 255C872.7 247 845.3 231 818 223C790.7 215 763.3 215 736.2 230C709 245 682 275 654.8 265C627.7 255 600.3 205 573 182C545.7 159 518.3 163 491 179C463.7 195 436.3 223 409 213C381.7 203 354.3 155 327 136C299.7 117 272.3 127 245.2 136C218 145 191 153 163.8 147C136.7 141 109.3 121 82 118C54.7 115 27.3 129 13.7 136L0 143Z" fill="#3c80ff"></path><path d="M0 355L13.7 352C27.3 349 54.7 343 82 341C109.3 339 136.7 341 163.8 333C191 325 218 307 245.2 307C272.3 307 299.7 325 327 345C354.3 365 381.7 387 409 389C436.3 391 463.7 373 491 354C518.3 335 545.7 315 573 332C600.3 349 627.7 403 654.8 419C682 435 709 413 736.2 392C763.3 371 790.7 351 818 360C845.3 369 872.7 407 886.3 426L900 445L900 365L886.3 352C872.7 339 845.3 313 818 302C790.7 291 763.3 295 736.2 309C709 323 682 347 654.8 333C627.7 319 600.3 267 573 244C545.7 221 518.3 227 491 241C463.7 255 436.3 277 409 276C381.7 275 354.3 251 327 233C299.7 215 272.3 203 245.2 211C218 219 191 247 163.8 257C136.7 267 109.3 259 82 258C54.7 257 27.3 263 13.7 266L0 269Z" fill="#0066ff"></path><path d="M0 427L13.7 419C27.3 411 54.7 395 82 396C109.3 397 136.7 415 163.8 415C191 415 218 397 245.2 394C272.3 391 299.7 403 327 423C354.3 443 381.7 471 409 477C436.3 483 463.7 467 491 447C518.3 427 545.7 403 573 412C600.3 421 627.7 463 654.8 472C682 481 709 457 736.2 443C763.3 429 790.7 425 818 436C845.3 447 872.7 473 886.3 486L900 499L900 443L886.3 424C872.7 405 845.3 367 818 358C790.7 349 763.3 369 736.2 390C709 411 682 433 654.8 417C627.7 401 600.3 347 573 330C545.7 313 518.3 333 491 352C463.7 371 436.3 389 409 387C381.7 385 354.3 363 327 343C299.7 323 272.3 305 245.2 305C218 305 191 323 163.8 331C136.7 339 109.3 337 82 339C54.7 341 27.3 347 13.7 350L0 353Z" fill="#0059dd"></path><path d="M0 601L13.7 601C27.3 601 54.7 601 82 601C109.3 601 136.7 601 163.8 601C191 601 218 601 245.2 601C272.3 601 299.7 601 327 601C354.3 601 381.7 601 409 601C436.3 601 463.7 601 491 601C518.3 601 545.7 601 573 601C600.3 601 627.7 601 654.8 601C682 601 709 601 736.2 601C763.3 601 790.7 601 818 601C845.3 601 872.7 601 886.3 601L900 601L900 497L886.3 484C872.7 471 845.3 445 818 434C790.7 423 763.3 427 736.2 441C709 455 682 479 654.8 470C627.7 461 600.3 419 573 410C545.7 401 518.3 425 491 445C463.7 465 436.3 481 409 475C381.7 469 354.3 441 327 421C299.7 401 272.3 389 245.2 392C218 395 191 413 163.8 413C136.7 413 109.3 395 82 394C54.7 393 27.3 409 13.7 417L0 425Z" fill="#004cbb"></path></svg>