<svg id="visual" viewBox="0 0 900 600" width="900" height="600" xmlns="http://www.w3.org/2000/svg" xmlns:xlink="http://www.w3.org/1999/xlink" version="1.1"><rect x="0" y="0" width="900" height="600" fill="#002233"></rect><path d="M0 444L21.5 452.8C43 461.7 86 479.3 128.8 473.3C171.7 467.3 214.3 437.7 257.2 430.5C300 423.3 343 438.7 385.8 444.2C428.7 449.7 471.3 445.3 514.2 449.5C557 453.7 600 466.3 642.8 479.2C685.7 492 728.3 505 771.2 507.8C814 510.7 857 503.3 878.5 499.7L900 496L900 601L878.5 601C857 601 814 601 771.2 601C728.3 601 685.7 601 642.8 601C600 601 557 601 514.2 601C471.3 601 428.7 601 385.8 601C343 601 300 601 257.2 601C214.3 601 171.7 601 128.8 601C86 601 43 601 21.5 601L0 601Z" fill="#0066FF" stroke-linecap="round" stroke-linejoin="miter"></path></svg>